#!OML:ASF F:\VICON\USERDATA\INSTALL\rory3\rory3.ASF
:FULLY-SPECIFIED
:DEGREES
55
root 0.3322524335524763 19.814838247664383 -7.673216020463874 15.391774492609946 1.365098014711625 -0.5631256762008647
lfemur -29.26146345510742 8.088321932584684 -16.884968898149637
ltibia 43.3152215560996
lfoot 9.605720639792283 2.502533299859386
ltoes -16.45742849813548
rfemur -25.840047515620398 -8.070946503197828 19.266885901788665
rtibia 45.152464331851625
rfoot 4.991725566380218 -11.028817323889864
rtoes 7.188634883614824
lowerback 5.576222941415721 -0.32294752641320007 -2.893096648610628
upperback 0.9335695667385666 -0.560200559912261 1.974434809449252
thorax -3.0129380031309965 -0.25898076031783585 3.2270585539516983
lowerneck -12.44755890494015 -0.6559242713196873 -3.0400887682366386
upperneck 13.501747128673733 -0.6298985559347009 1.656544924875363
head 5.584795082763052 -0.2769515189198626 0.9891472720539252
lclavicle -1.802163029867416e-15 1.6895105497013064e-16
lhumerus -12.729061795208654 -8.611512616791773 82.48340101834206
lradius 31.234374807551823
lwrist 22.647364098192927
lhand -25.57065470191229 -9.090189587047085
lfingers 7.125019999999999
lthumb 0.9604806972472448 20.883295726801165
rclavicle -1.802163029867416e-15 1.6895105497013064e-16
rhumerus -19.52011910479245 1.9190884105827362 -80.07956251386102
rradius 41.714415112161
rwrist 30.542571982835927
rhand -16.81710822266647 -24.777196300141977
rfingers 7.125019999999999
rthumb 9.411365012648055 -54.49653493718265
56
root 0.3395206980487854 20.743468111482468 -5.59832277522308 13.54061454352693 1.603116225523817 -0.5179234785281941
lfemur -27.56305106587708 8.432461869940807 -16.83158229718608
ltibia 40.079441281169345
lfoot 14.336105033256187 0.7135745788456527
ltoes -12.488022632544418
rfemur -24.332372173290246 -8.956982115902052 19.2163745044022
rtibia 42.63515085084188
rfoot 10.270815112575622 -9.357347092021994
rtoes 11.18569846959916
lowerback 4.970573027113667 -0.4645496824951638 -2.881157105389078
upperback 1.5798306971721456 -0.7483337625034014 1.8765932433145402
thorax -1.7139879482176963 -0.3821135177208595 3.1790190858927385
lowerneck -11.166711675708934 -0.6852574230706691 -2.9647971830200177
upperneck 15.92482630670419 -0.7598824310619813 1.9804259094664847
head 6.2294352613206465 -0.3152763891380373 1.0495306095096373
lclavicle -1.5339214462655297e-15 5.259860064669879e-16
lhumerus -12.163767565359832 -10.954864513273707 83.27412375463192
lradius 32.554142087009616
lwrist 25.289268951318117
lhand -25.34468565938421 -9.270294063879572
lfingers 7.125019999999999
lthumb 1.178691781208395 20.702931883242606
rclavicle -1.53392144626553e-15 5.25986006466988e-16
rhumerus -19.638912483548793 1.2625765118781676 -80.40438205603708
rradius 41.268576012461175
rwrist 30.98348253729631
rhand -16.577685822598294 -24.675986811397383
rfingers 7.125019999999999
rthumb 9.642361235969885 -54.38895492968304
57
root 0.338345689565193 21.230475781911018 -4.010860462928509 11.953840867490847 1.763682735555462 -0.6001667080038502
lfemur -27.94470877025457 8.80143114896266 -17.089659901986714
ltibia 36.81086866936809
lfoot 17.167149546643373 -0.9733306339489616
ltoes -9.582531960026238
rfemur -25.394989310433516 -9.521574037771451 19.350460689434037
rtibia 40.297595641655946
rfoot 13.600474411031048 -7.883949158609754
rtoes 13.709476845929467
lowerback 4.627491395514096 -0.4986719144589854 -2.860087604446594
upperback 2.26196848672449 -0.7981479291980638 1.7850606142797976
thorax -0.9084819850762487 -0.42598166201150683 3.0729466194054877
lowerneck -10.12571235723382 -0.6948244219939099 -2.828421152206173
upperneck 17.424431008762223 -0.8952219156286548 2.2189598974957248
head 6.596350051894168 -0.3407620250380872 1.0844951367886484
lclavicle -1.6497157799402612e-15 3.745321341063214e-16
lhumerus -13.022484240799528 -11.456101632430382 83.67923581889998
lradius 32.42349069047059
lwrist 26.26850165206854
lhand -25.085623640149446 -9.220147075751662
lfingers 7.125019999999999
lthumb 1.4288392726176398 20.749377194569796
rclavicle -1.6497157799402612e-15 3.7453213410632157e-16
rhumerus -20.437142297847547 -0.308526109553787 -80.61934444717348
rradius 40.054543065056805
rwrist 31.336845169716455
rhand -16.637393823313314 -24.777752620769668
rfingers 7.125019999999999
rthumb 9.58472713062763 -54.49049240555271
58
root 0.32844865581674304 21.462029050403025 -2.624133546292586 10.444023287801327 1.897345369865108 -0.7277820213630364
lfemur -28.474509998406894 9.238852071216812 -17.503111678430557
ltibia 33.601813037398564
lfoot 18.21663910306311 -2.068534956900609
ltoes -8.274776061108065
rfemur -26.42567488948105 -9.89328915783717 19.64166248107499
rtibia 37.547572858640365
rfoot 15.19215882852021 -6.673182382253195
rtoes 15.389068412948259
lowerback 4.703170559990459 -0.4773953234067657 -2.8187119345894764
upperback 2.5731450284244275 -0.7867855980275464 1.7744576813149626
thorax -0.6818989661106412 -0.43209152996797534 3.0327645835436843
lowerneck -9.837728301817382 -0.7170043364288758 -2.701785344620826
upperneck 19.186548116589627 -1.0062490831640345 2.3626329361098
head 7.200868631330888 -0.37136207437917357 1.1008151205661765
lclavicle -1.6586221373518903e-15 3.574355671027701e-16
lhumerus -13.90164789915893 -10.417165991507035 84.19091935791621
lradius 31.232824894120377
lwrist 25.458157130126573
lhand -24.768563557889102 -9.272367900464378
lfingers 7.125019999999999
lthumb 1.7350041356011965 20.697049847074524
rclavicle -1.6586221373518903e-15 3.5743556710277023e-16
rhumerus -21.508216123629214 -2.4963464196122906 -80.60020815771105
rradius 37.65941205193835
rwrist 32.27472900205908
rhand -16.788050122027457 -24.99854042345366
rfingers 7.125019999999999
rthumb 9.43938663817285 -54.7218071415064
